<?xml version="1.0" encoding="UTF-8" standalone="no"?>
<!-- Created with Inkscape (http://www.inkscape.org/) -->

<svg
   xmlns:dc="http://purl.org/dc/elements/1.1/"
   xmlns:cc="http://creativecommons.org/ns#"
   xmlns:rdf="http://www.w3.org/1999/02/22-rdf-syntax-ns#"
   xmlns:svg="http://www.w3.org/2000/svg"
   xmlns="http://www.w3.org/2000/svg"
   xmlns:sodipodi="http://sodipodi.sourceforge.net/DTD/sodipodi-0.dtd"
   xmlns:inkscape="http://www.inkscape.org/namespaces/inkscape"
   width="163mm"
   height="100mm"
   viewBox="0 0 163 100"
   version="1.1"
   id="svg8967"
   inkscape:version="0.92.3 (2405546, 2018-03-11)"
   sodipodi:docname="drawing.svg">
  <defs
     id="defs8961" />
  <sodipodi:namedview
     id="base"
     pagecolor="#ffffff"
     bordercolor="#666666"
     borderopacity="1.0"
     inkscape:pageopacity="0.0"
     inkscape:pageshadow="2"
     inkscape:zoom="0.49497475"
     inkscape:cx="498.65296"
     inkscape:cy="734.41596"
     inkscape:document-units="mm"
     inkscape:current-layer="layer1"
     showgrid="false"
     inkscape:window-width="1920"
     inkscape:window-height="1017"
     inkscape:window-x="1272"
     inkscape:window-y="-8"
     inkscape:window-maximized="1"
     showguides="false" />
  <metadata
     id="metadata8964">
    <rdf:RDF>
      <cc:Work
         rdf:about="">
        <dc:format>image/svg+xml</dc:format>
        <dc:type
           rdf:resource="http://purl.org/dc/dcmitype/StillImage" />
        <dc:title></dc:title>
      </cc:Work>
    </rdf:RDF>
  </metadata>
  <g
     inkscape:label="Layer 1"
     inkscape:groupmode="layer"
     id="layer1"
     transform="translate(0,-197)">
    <g
       id="g8021"
       transform="matrix(0.26409387,0,0,0.26458473,-265.9919,472.13538)">
      <g
         style="fill:none;stroke:#4f3c2f;stroke-opacity:1"
         transform="matrix(1.7611235,0,0,1.8039909,-1213.8475,765.61559)"
         id="g5491">
        <rect
           style="opacity:1;fill:none;fill-opacity:1;stroke:#4f3c2f;stroke-width:2.29999995;stroke-linecap:round;stroke-linejoin:round;stroke-miterlimit:4;stroke-dasharray:none;stroke-dashoffset:0;stroke-opacity:1;paint-order:markers fill stroke"
           id="rect5485"
           width="57.168468"
           height="75.722511"
           x="1382.1101"
           y="-883.01428" />
        <rect
           y="-883.01428"
           x="1439.2786"
           height="75.722511"
           width="54.35268"
           id="rect5487"
           style="opacity:1;fill:none;fill-opacity:1;stroke:#4f3c2f;stroke-width:2.29999995;stroke-linecap:round;stroke-linejoin:round;stroke-miterlimit:4;stroke-dasharray:none;stroke-dashoffset:0;stroke-opacity:1;paint-order:markers fill stroke" />
        <rect
           y="-883.01428"
           x="1382.1101"
           height="25.252115"
           width="57.168468"
           id="rect5489"
           style="opacity:1;fill:none;fill-opacity:1;stroke:#4f3c2f;stroke-width:2.29999995;stroke-linecap:round;stroke-linejoin:round;stroke-miterlimit:4;stroke-dasharray:none;stroke-dashoffset:0;stroke-opacity:1;paint-order:markers fill stroke" />
        <rect
           style="opacity:1;fill:none;fill-opacity:1;stroke:#4f3c2f;stroke-width:2.29999995;stroke-linecap:round;stroke-linejoin:round;stroke-miterlimit:4;stroke-dasharray:none;stroke-dashoffset:0;stroke-opacity:1;paint-order:markers fill stroke"
           id="rect5491"
           width="57.168468"
           height="25.252115"
           x="1382.1101"
           y="-857.76233" />
        <rect
           style="opacity:1;fill:none;fill-opacity:1;stroke:#4f3c2f;stroke-width:1.60000002;stroke-linecap:round;stroke-linejoin:round;stroke-miterlimit:4;stroke-dasharray:none;stroke-dashoffset:0;stroke-opacity:1;paint-order:markers fill stroke"
           id="rect5493"
           width="47.715797"
           height="68.398804"
           x="1442.597"
           y="-879.35242" />
        <ellipse
           style="opacity:1;fill:none;fill-opacity:1;stroke:#4f3c2f;stroke-width:1.20000005;stroke-linecap:round;stroke-linejoin:round;stroke-miterlimit:4;stroke-dasharray:none;stroke-dashoffset:0;stroke-opacity:1;paint-order:markers fill stroke"
           id="path5495"
           cx="1482.7429"
           cy="-870.38806"
           rx="1.8771932"
           ry="1.8727425" />
        <rect
           y="-883.01428"
           x="1382.1101"
           height="25.252115"
           width="57.168468"
           id="rect5499"
           style="opacity:1;fill:none;fill-opacity:1;stroke:#4f3c2f;stroke-width:2.29999995;stroke-linecap:round;stroke-linejoin:round;stroke-miterlimit:4;stroke-dasharray:none;stroke-dashoffset:0;stroke-opacity:1;paint-order:markers fill stroke" />
        <rect
           style="opacity:1;fill:none;fill-opacity:1;stroke:#4f3c2f;stroke-width:1.34800005;stroke-linecap:round;stroke-linejoin:round;stroke-miterlimit:4;stroke-dasharray:none;stroke-dashoffset:0;stroke-opacity:1;paint-order:markers fill stroke"
           id="rect5501"
           width="50.168137"
           height="18.701725"
           x="1385.5205"
           y="-879.70398" />
        <rect
           y="-832.51013"
           x="1382.1101"
           height="25.252115"
           width="57.168468"
           id="rect5503"
           style="opacity:1;fill:none;fill-opacity:1;stroke:#4f3c2f;stroke-width:2.29999995;stroke-linecap:round;stroke-linejoin:round;stroke-miterlimit:4;stroke-dasharray:none;stroke-dashoffset:0;stroke-opacity:1;paint-order:markers fill stroke" />
        <ellipse
           cy="-870.38806"
           cx="1410.6943"
           id="circle5507"
           style="opacity:1;fill:none;fill-opacity:1;stroke:#4f3c2f;stroke-width:1.20000005;stroke-linecap:round;stroke-linejoin:round;stroke-miterlimit:4;stroke-dasharray:none;stroke-dashoffset:0;stroke-opacity:1;paint-order:markers fill stroke"
           rx="1.8771932"
           ry="1.8727425" />
        <rect
           y="-854.48712"
           x="1385.5205"
           height="18.701725"
           width="50.168137"
           id="rect5356"
           style="opacity:1;fill:none;fill-opacity:1;stroke:#4f3c2f;stroke-width:1.34800005;stroke-linecap:round;stroke-linejoin:round;stroke-miterlimit:4;stroke-dasharray:none;stroke-dashoffset:0;stroke-opacity:1;paint-order:markers fill stroke" />
        <rect
           style="opacity:1;fill:none;fill-opacity:1;stroke:#4f3c2f;stroke-width:1.34800005;stroke-linecap:round;stroke-linejoin:round;stroke-miterlimit:4;stroke-dasharray:none;stroke-dashoffset:0;stroke-opacity:1;paint-order:markers fill stroke"
           id="rect5358"
           width="50.168137"
           height="18.701725"
           x="1385.5205"
           y="-829.23492" />
        <ellipse
           ry="1.8727425"
           rx="1.8771932"
           style="opacity:1;fill:none;fill-opacity:1;stroke:#4f3c2f;stroke-width:1.20000005;stroke-linecap:round;stroke-linejoin:round;stroke-miterlimit:4;stroke-dasharray:none;stroke-dashoffset:0;stroke-opacity:1;paint-order:markers fill stroke"
           id="ellipse5360"
           cx="1410.6943"
           cy="-845.13623" />
        <ellipse
           cy="-819.88403"
           cx="1410.6943"
           id="ellipse5362"
           style="opacity:1;fill:none;fill-opacity:1;stroke:#4f3c2f;stroke-width:1.20000005;stroke-linecap:round;stroke-linejoin:round;stroke-miterlimit:4;stroke-dasharray:none;stroke-dashoffset:0;stroke-opacity:1;paint-order:markers fill stroke"
           rx="1.8771932"
           ry="1.8727425" />
        <rect
           y="-883.01428"
           x="-1605.1523"
           height="75.722511"
           width="57.168468"
           id="rect5364"
           style="opacity:1;fill:none;fill-opacity:1;stroke:#4f3c2f;stroke-width:2.29999995;stroke-linecap:round;stroke-linejoin:round;stroke-miterlimit:4;stroke-dasharray:none;stroke-dashoffset:0;stroke-opacity:1;paint-order:markers fill stroke"
           transform="scale(-1,1)" />
        <rect
           style="opacity:1;fill:none;fill-opacity:1;stroke:#4f3c2f;stroke-width:2.29999995;stroke-linecap:round;stroke-linejoin:round;stroke-miterlimit:4;stroke-dasharray:none;stroke-dashoffset:0;stroke-opacity:1;paint-order:markers fill stroke"
           id="rect5366"
           width="54.35268"
           height="75.722511"
           x="-1547.9839"
           y="-883.01428"
           transform="scale(-1,1)" />
        <rect
           style="opacity:1;fill:none;fill-opacity:1;stroke:#4f3c2f;stroke-width:2.29999995;stroke-linecap:round;stroke-linejoin:round;stroke-miterlimit:4;stroke-dasharray:none;stroke-dashoffset:0;stroke-opacity:1;paint-order:markers fill stroke"
           id="rect5368"
           width="57.168468"
           height="25.252115"
           x="-1605.1523"
           y="-883.01428"
           transform="scale(-1,1)" />
        <rect
           y="-857.76233"
           x="-1605.1523"
           height="25.252115"
           width="57.168468"
           id="rect5370"
           style="opacity:1;fill:none;fill-opacity:1;stroke:#4f3c2f;stroke-width:2.29999995;stroke-linecap:round;stroke-linejoin:round;stroke-miterlimit:4;stroke-dasharray:none;stroke-dashoffset:0;stroke-opacity:1;paint-order:markers fill stroke"
           transform="scale(-1,1)" />
        <rect
           y="-879.35242"
           x="-1544.6654"
           height="68.398804"
           width="47.715797"
           id="rect5372"
           style="opacity:1;fill:none;fill-opacity:1;stroke:#4f3c2f;stroke-width:1.60000002;stroke-linecap:round;stroke-linejoin:round;stroke-miterlimit:4;stroke-dasharray:none;stroke-dashoffset:0;stroke-opacity:1;paint-order:markers fill stroke"
           transform="scale(-1,1)" />
        <ellipse
           ry="1.8727425"
           rx="1.8771932"
           cy="-870.51306"
           cx="-1503.7695"
           id="ellipse5374"
           style="opacity:1;fill:none;fill-opacity:1;stroke:#4f3c2f;stroke-width:1.20000005;stroke-linecap:round;stroke-linejoin:round;stroke-miterlimit:4;stroke-dasharray:none;stroke-dashoffset:0;stroke-opacity:1;paint-order:markers fill stroke"
           transform="scale(-1,1)" />
        <rect
           style="opacity:1;fill:none;fill-opacity:1;stroke:#4f3c2f;stroke-width:2.29999995;stroke-linecap:round;stroke-linejoin:round;stroke-miterlimit:4;stroke-dasharray:none;stroke-dashoffset:0;stroke-opacity:1;paint-order:markers fill stroke"
           id="rect5376"
           width="57.168468"
           height="25.252115"
           x="-1605.1523"
           y="-883.01428"
           transform="scale(-1,1)" />
        <rect
           y="-879.70398"
           x="-1601.7419"
           height="18.701725"
           width="50.168137"
           id="rect5378"
           style="opacity:1;fill:none;fill-opacity:1;stroke:#4f3c2f;stroke-width:1.34800005;stroke-linecap:round;stroke-linejoin:round;stroke-miterlimit:4;stroke-dasharray:none;stroke-dashoffset:0;stroke-opacity:1;paint-order:markers fill stroke"
           transform="scale(-1,1)" />
        <rect
           style="opacity:1;fill:none;fill-opacity:1;stroke:#4f3c2f;stroke-width:2.29999995;stroke-linecap:round;stroke-linejoin:round;stroke-miterlimit:4;stroke-dasharray:none;stroke-dashoffset:0;stroke-opacity:1;paint-order:markers fill stroke"
           id="rect5380"
           width="57.168468"
           height="25.252115"
           x="-1605.1523"
           y="-832.51013"
           transform="scale(-1,1)" />
        <ellipse
           ry="1.8727425"
           rx="1.8771932"
           style="opacity:1;fill:none;fill-opacity:1;stroke:#4f3c2f;stroke-width:1.20000005;stroke-linecap:round;stroke-linejoin:round;stroke-miterlimit:4;stroke-dasharray:none;stroke-dashoffset:0;stroke-opacity:1;paint-order:markers fill stroke"
           id="ellipse5382"
           cx="-1576.5681"
           cy="-870.38806"
           transform="scale(-1,1)" />
        <rect
           style="opacity:1;fill:none;fill-opacity:1;stroke:#4f3c2f;stroke-width:1.34800005;stroke-linecap:round;stroke-linejoin:round;stroke-miterlimit:4;stroke-dasharray:none;stroke-dashoffset:0;stroke-opacity:1;paint-order:markers fill stroke"
           id="rect5384"
           width="50.168137"
           height="18.701725"
           x="-1601.7419"
           y="-854.48712"
           transform="scale(-1,1)" />
        <rect
           y="-829.23492"
           x="-1601.7419"
           height="18.701725"
           width="50.168137"
           id="rect5387"
           style="opacity:1;fill:none;fill-opacity:1;stroke:#4f3c2f;stroke-width:1.34800005;stroke-linecap:round;stroke-linejoin:round;stroke-miterlimit:4;stroke-dasharray:none;stroke-dashoffset:0;stroke-opacity:1;paint-order:markers fill stroke"
           transform="scale(-1,1)" />
        <ellipse
           cy="-845.13623"
           cx="-1576.5681"
           id="ellipse5389"
           style="opacity:1;fill:none;fill-opacity:1;stroke:#4f3c2f;stroke-width:1.20000005;stroke-linecap:round;stroke-linejoin:round;stroke-miterlimit:4;stroke-dasharray:none;stroke-dashoffset:0;stroke-opacity:1;paint-order:markers fill stroke"
           rx="1.8771932"
           ry="1.8727425"
           transform="scale(-1,1)" />
        <ellipse
           ry="1.8727425"
           rx="1.8771932"
           style="opacity:1;fill:none;fill-opacity:1;stroke:#4f3c2f;stroke-width:1.20000005;stroke-linecap:round;stroke-linejoin:round;stroke-miterlimit:4;stroke-dasharray:none;stroke-dashoffset:0;stroke-opacity:1;paint-order:markers fill stroke"
           id="ellipse5391"
           cx="-1576.5681"
           cy="-819.88403"
           transform="scale(-1,1)" />
      </g>
      <g
         style="fill:none;stroke:#4f3c2f;stroke-opacity:1"
         transform="matrix(1.8033555,0,0,-1.8033555,-1273.4518,-2681.7844)"
         id="g5411">
        <rect
           style="opacity:1;fill:none;fill-opacity:1;stroke:#4f3c2f;stroke-width:2.29999995;stroke-linecap:round;stroke-linejoin:round;stroke-miterlimit:4;stroke-dasharray:none;stroke-dashoffset:0;stroke-opacity:1;paint-order:markers fill stroke"
           id="rect5393"
           width="54.35268"
           height="75.722511"
           x="1382.7786"
           y="-993.51428" />
        <rect
           y="-989.85242"
           x="1386.097"
           height="68.398804"
           width="47.715797"
           id="rect5395"
           style="opacity:1;fill:none;fill-opacity:1;stroke:#4f3c2f;stroke-width:1.60000002;stroke-linecap:round;stroke-linejoin:round;stroke-miterlimit:4;stroke-dasharray:none;stroke-dashoffset:0;stroke-opacity:1;paint-order:markers fill stroke" />
        <ellipse
           ry="1.8727425"
           rx="1.8771932"
           cy="-980.88806"
           cx="1426.2429"
           id="ellipse5397"
           style="opacity:1;fill:none;fill-opacity:1;stroke:#4f3c2f;stroke-width:1.20000005;stroke-linecap:round;stroke-linejoin:round;stroke-miterlimit:4;stroke-dasharray:none;stroke-dashoffset:0;stroke-opacity:1;paint-order:markers fill stroke" />
        <rect
           transform="scale(-1,1)"
           y="-993.51428"
           x="-1491.4839"
           height="75.722511"
           width="54.35268"
           id="rect5399"
           style="opacity:1;fill:none;fill-opacity:1;stroke:#4f3c2f;stroke-width:2.29999995;stroke-linecap:round;stroke-linejoin:round;stroke-miterlimit:4;stroke-dasharray:none;stroke-dashoffset:0;stroke-opacity:1;paint-order:markers fill stroke" />
        <rect
           transform="scale(-1,1)"
           style="opacity:1;fill:none;fill-opacity:1;stroke:#4f3c2f;stroke-width:1.60000002;stroke-linecap:round;stroke-linejoin:round;stroke-miterlimit:4;stroke-dasharray:none;stroke-dashoffset:0;stroke-opacity:1;paint-order:markers fill stroke"
           id="rect5401"
           width="47.715797"
           height="68.398804"
           x="-1488.1654"
           y="-989.85242" />
        <ellipse
           transform="scale(-1,1)"
           style="opacity:1;fill:none;fill-opacity:1;stroke:#4f3c2f;stroke-width:1.20000005;stroke-linecap:round;stroke-linejoin:round;stroke-miterlimit:4;stroke-dasharray:none;stroke-dashoffset:0;stroke-opacity:1;paint-order:markers fill stroke"
           id="ellipse5403"
           cx="-1447.2695"
           cy="-981.01306"
           rx="1.8771932"
           ry="1.8727425" />
      </g>
      <g
         style="fill:none;stroke:#4f3c2f;stroke-opacity:1"
         id="g5426"
         transform="matrix(1.8033555,0,0,-1.8033555,-1077.4174,-2681.7844)">
        <rect
           y="-993.51428"
           x="1382.7786"
           height="75.722511"
           width="54.35268"
           id="rect5413"
           style="opacity:1;fill:none;fill-opacity:1;stroke:#4f3c2f;stroke-width:2.29999995;stroke-linecap:round;stroke-linejoin:round;stroke-miterlimit:4;stroke-dasharray:none;stroke-dashoffset:0;stroke-opacity:1;paint-order:markers fill stroke" />
        <rect
           style="opacity:1;fill:none;fill-opacity:1;stroke:#4f3c2f;stroke-width:1.31551635;stroke-linecap:round;stroke-linejoin:round;stroke-miterlimit:4;stroke-dasharray:none;stroke-dashoffset:0;stroke-opacity:1;paint-order:markers fill stroke"
           id="rect5416"
           width="47.985878"
           height="3.4875991"
           x="1386.0176"
           y="-936.59192" />
        <rect
           style="opacity:1;fill:none;fill-opacity:1;stroke:#4f3c2f;stroke-width:2.29999995;stroke-linecap:round;stroke-linejoin:round;stroke-miterlimit:4;stroke-dasharray:none;stroke-dashoffset:0;stroke-opacity:1;paint-order:markers fill stroke"
           id="rect5420"
           width="54.35268"
           height="75.722511"
           x="-1491.4839"
           y="-993.51428"
           transform="scale(-1,1)" />
        <rect
           y="-989.85242"
           x="-1488.1654"
           height="68.398804"
           width="47.715797"
           id="rect5422"
           style="opacity:1;fill:none;fill-opacity:1;stroke:#4f3c2f;stroke-width:1.60000002;stroke-linecap:round;stroke-linejoin:round;stroke-miterlimit:4;stroke-dasharray:none;stroke-dashoffset:0;stroke-opacity:1;paint-order:markers fill stroke"
           transform="scale(-1,1)" />
        <ellipse
           ry="1.8727425"
           rx="1.8771932"
           cy="-981.01306"
           cx="-1447.2695"
           id="ellipse5424"
           style="opacity:1;fill:none;fill-opacity:1;stroke:#4f3c2f;stroke-width:1.20000005;stroke-linecap:round;stroke-linejoin:round;stroke-miterlimit:4;stroke-dasharray:none;stroke-dashoffset:0;stroke-opacity:1;paint-order:markers fill stroke"
           transform="scale(-1,1)" />
        <rect
           y="-955.59973"
           x="1386.0176"
           height="3.4875991"
           width="47.985878"
           id="rect5428"
           style="opacity:1;fill:none;fill-opacity:1;stroke:#4f3c2f;stroke-width:1.31551635;stroke-linecap:round;stroke-linejoin:round;stroke-miterlimit:4;stroke-dasharray:none;stroke-dashoffset:0;stroke-opacity:1;paint-order:markers fill stroke" />
        <rect
           style="opacity:1;fill:none;fill-opacity:1;stroke:#4f3c2f;stroke-width:1.31551635;stroke-linecap:round;stroke-linejoin:round;stroke-miterlimit:4;stroke-dasharray:none;stroke-dashoffset:0;stroke-opacity:1;paint-order:markers fill stroke"
           id="rect5430"
           width="47.985878"
           height="3.4875991"
           x="1386.0176"
           y="-974.60754" />
        <rect
           transform="scale(-1,1)"
           style="opacity:1;fill:none;fill-opacity:1;stroke:#4f3c2f;stroke-width:1.60000002;stroke-linecap:round;stroke-linejoin:round;stroke-miterlimit:4;stroke-dasharray:none;stroke-dashoffset:0;stroke-opacity:1;paint-order:markers fill stroke"
           id="rect5432"
           width="47.715797"
           height="68.398804"
           x="-1433.8127"
           y="-989.85242" />
      </g>
      <rect
         style="opacity:1;fill:none;fill-opacity:1;stroke:#4f3c2f;stroke-width:3.99915028;stroke-linecap:round;stroke-linejoin:round;stroke-miterlimit:4;stroke-dasharray:none;stroke-dashoffset:0;stroke-opacity:1;paint-order:markers fill stroke"
         id="rect5393-8"
         width="392.05481"
         height="62.782722"
         x="1220.1935"
         y="827.33813"
         transform="scale(1,-1)" />
      <rect
         transform="scale(1,-1)"
         y="827.04291"
         x="1211.8357"
         height="7.1929731"
         width="407.79138"
         id="rect5494"
         style="opacity:1;fill:#4f3c2f;fill-opacity:1;stroke:#4f3c2f;stroke-width:2.50031805;stroke-linecap:round;stroke-linejoin:round;stroke-miterlimit:4;stroke-dasharray:none;stroke-dashoffset:0;stroke-opacity:1;paint-order:markers fill stroke" />
      <g
         transform="matrix(-1,0,0,1,1004.6768,13.182901)"
         id="g5550">
        <path
           sodipodi:type="spiral"
           style="fill:none;fill-rule:evenodd;stroke:#5cb544;stroke-width:2.8440001;stroke-miterlimit:4;stroke-dasharray:none;stroke-opacity:1"
           id="path5508"
           sodipodi:cx="396.78186"
           sodipodi:cy="-1016.5893"
           sodipodi:expansion="1"
           sodipodi:revolution="1.6267529"
           sodipodi:radius="8.104845"
           sodipodi:argument="-7.0685835"
           sodipodi:t0="0.25841197"
           d="m 396.19284,-1014.5794 c -1.60192,0.1233 -2.69247,-1.4818 -2.61612,-2.9492 0.11735,-2.2552 2.36888,-3.7042 4.49475,-3.4611 2.90492,0.3322 4.72616,3.2595 4.30609,6.0403 -0.53693,3.5545 -4.15162,5.753 -7.58591,5.1511 -3.35195,-0.5875 -5.82412,-3.5362 -6.11414,-6.8803"
           transform="matrix(-0.06229028,-0.99805808,-0.99805808,0.06229028,-596.54264,-562.29061)" />
        <rect
           style="opacity:1;fill:#5cb544;fill-opacity:1;stroke:none;stroke-width:3.2179451;stroke-linecap:round;stroke-linejoin:round;stroke-miterlimit:4;stroke-dasharray:none;stroke-dashoffset:0;stroke-opacity:1;paint-order:markers fill stroke"
           id="rect5546"
           width="10.765624"
           height="2.828125"
           x="393.81137"
           y="-1014.9562" />
      </g>
      <g
         transform="matrix(-1.7963412,0,0,1.7963412,3878.2033,782.73295)"
         id="g6084">
        <path
           style="fill:#fbefe2;fill-opacity:1;stroke:#000000;stroke-width:1px;stroke-linecap:butt;stroke-linejoin:miter;stroke-opacity:1"
           d="m 1520.2459,-834.76732 -3.371,-2.74538 -4.4375,-9.875 -4.375,-14.5 -4.6651,-17.3006 -9.2807,-9.8995 -6.656,-3.2558 3.2088,-0.7216 -18.6499,-3.624 -13.7886,-0.7071 -20.7713,0.5304 -6.9284,0.8844 -6.1875,-0.4687 -7.4688,-1.9375 -1.25,-1.25 2.1875,-1.6563 0.2188,-2.9062 -3.3125,-2.1875 -3.7813,1.2812 -1.4062,0.7188 -4.3438,-1.1563 -5.8673,-0.072 -0.6188,0.3094 -4.0658,-1.2817 -3.182,-0.3535 3.1378,2.961 -3.8449,-0.4861 -3.1378,0.8397 -1.6794,1.1932 3.4914,0.1326 -3.7019,2.3828 -1.9688,2.2188 -1.7061,3.0526 -1.5751,0.7599 -2.8125,1.5312 -1.1563,3 0.625,2.375 2.0938,1.0625 1.4062,-0.062 -0.9687,3.5625 2.6875,3.5625 -1.4063,0.1563 2.3125,3.7812 c 0,0 5.2813,4.3125 5.4063,4.3125 0.125,0 6.5312,3.2813 6.5312,3.2813 l 2.375,1.9375 4.9396,7.7662 1.1933,0.088 2.0309,5.4195 -5.699,7.7945 -8.9023,1.4001 -3.9062,2.5313 6.4062,6.125 3.2203,-3.2284 8.7504,0.1989 5.458,-2.2097 4.9277,-3.4251 8.7504,6.4745 3.8352,4.2964 -0.8742,3.2166 6.0104,4.0217 2.7868,-0.7031 4.6975,2.5457 9.5625,4.6875 c 0,0 11.7236,3.9439 12.0772,3.9439 0.3535,0 7.9107,-0.1326 7.9107,-0.1326 l 11.0486,-1.591 c 0,0 15.276,0.4047 15.526,0.2172 0.25,-0.1875 17.125,-1.8125 17.125,-1.8125 l 9.5,1 28.6039,7.9316 17.8544,1.5026 10.695,-1.9446 5.1265,-3.3587 0.6187,-4.2427 -3.8007,-3.0052 -11.3137,-3.0052 -17.0589,-2.9168 -18.4732,-2.8284 -15.4969,-4.2043 z"
           id="path6036"
           inkscape:connector-curvature="0"
           sodipodi:nodetypes="cccccccccccccccccccccccccccccccccccccccccccsccccccccccccccccccccsccsccccccccccccc" />
        <g
           id="g6034"
           transform="matrix(-1.1820105,0,0,1.1820105,224.56141,1855.4355)">
          <path
             sodipodi:nodetypes="ccccssssccsscccccccccccccccccccccssccccccccsccccscccsccsccccsccsccccsccsccsccsccscccsccccccc"
             inkscape:connector-curvature="0"
             id="path5944"
             d="m -1006.7461,-2331.5732 -4.9011,1.835 -3.3822,0.9469 -3.9231,0.3721 c 0,0 -7.1905,-0.4506 -10.789,-0.6088 -4.6539,-0.2044 -9.3099,-0.4237 -13.9682,-0.4397 -3.8786,-0.014 -7.7684,-0.052 -11.6322,0.2861 -3.5018,0.3069 -7.0036,0.7803 -10.427,1.5783 -2.998,0.6989 -8.8008,2.7981 -8.8008,2.7981 l 2.0805,0.8849 c 0,0 -4.8582,3.0294 -6.9592,4.9504 -1.448,1.3239 -2.6193,2.9257 -3.8265,4.4722 -0.7282,0.9329 -2.0567,2.8938 -2.0567,2.8938 l 1.411,-0.574 -1.8894,3.109 -1.5783,3.7786 2.4632,-1.2914 -1.5783,4.3526 -1.6023,4.9983 -1.1003,4.4004 -1.5783,7.1267 -1.8175,4.9744 -0.7744,1.3848 -1.1162,1.1161 -2.3506,1.4881 -2.479,1.2006 -0.8849,0.4066 2.8219,0.6935 0.8371,0.1198 -2.0567,2.3438 -1.0044,1.0761 3.5155,-0.2152 0.6936,-0.048 c 0,0 -0.376,1.3997 -0.6219,2.0806 -0.1589,0.4402 -0.3311,0.8778 -0.5501,1.2914 -0.6071,1.1473 -2.1045,3.2765 -2.1045,3.2765 l -2.3198,3.0373 2.9895,-0.2632 2.8938,-0.287 -2.2004,2.6069 h 4.9505 l 6.9115,-0.1199 11.3142,-4.9324 c 0,0 -5.4001,0.061 -8.0881,0.2917 -2.9554,0.2538 -8.8175,1.1997 -8.8175,1.1997 l 4.2753,-3.7655 -5.4278,0.5542 -1.0523,0.072 c 0,0 1.7363,-2.2251 2.6776,-3.5435 1.4505,-2.0313 3.6364,-6.546 3.6364,-6.546 l -7.0316,2.6559 -0.7653,0.263 c 0,0 2.4662,-2.1421 3.4677,-3.4198 0.5382,-0.6865 1.3393,-2.2481 1.3393,-2.2481 l -2.1045,1.1718 c 0,0 1.498,-2.3435 2.0567,-3.6112 1.3314,-3.0208 3.0448,-9.424 3.0448,-9.424 l 1.0213,5.0932 c 0,0 1.8318,-5.9629 2.954,-8.8705 l -0.9975,0.059 c 0.3554,-0.6778 2.901,-4.9054 3.0353,-5.2178 1.2691,-2.9526 1.1132,-3.837 1.1132,-3.837 l -1.9634,2.3587 c 0,0 1.1229,-2.8947 1.2978,-3.6142 0.2216,-0.9115 0.8811,-2.6724 0.8811,-2.6724 l -3.3066,4.3282 3.4003,-7.5192 -1.3358,0.2705 c 0,0 1.813,-2.5909 2.9372,-3.6899 1.0769,-1.0527 3.5977,-2.733 3.5977,-2.733 l -3.5811,0.7325 c 0,0 4.5778,-3.8535 6.8346,-5.1536 2.6345,-1.5179 5.3265,-3.059 5.3265,-3.059 l -2.7213,-0.3184 c 0,0 6.5719,-1.846 9.9435,-2.2998 2.7731,-0.3733 8.3876,-0.3382 8.3876,-0.3382 l -3.1791,-0.4712 c 0,0 6.1833,-0.3424 9.2782,-0.3519 2.4574,-0.015 7.3686,0.234 7.3686,0.234 l -2.8364,0.4141 c 0,0 6.1057,-0.3969 9.0808,-0.3627 2.2696,0.026 6.7881,0.5358 6.7881,0.5358 l -0.8636,1.0165 6.3366,-0.6546 c 0,0 2.5749,-0.2826 3.8284,-0.5933 1.0148,-0.2514 2.9654,-1.0226 2.9654,-1.0226 l -2.2477,2.5653 -1.9649,2.0808 2.5729,-0.082 3.7723,-4.0593 3.4232,-2.3426 z"
             style="fill:#4f3c2f;fill-opacity:1;stroke:none;stroke-width:1px;stroke-linecap:butt;stroke-linejoin:miter;stroke-opacity:1" />
          <path
             sodipodi:nodetypes="csssssscccccssccscscccccccccsccsscsccsccscccsccccsccsccsscc"
             inkscape:connector-curvature="0"
             id="path5946"
             d="m -1057.8174,-2308.0207 c 0,0 5.2164,1.2949 7.4499,2.7065 2.8781,1.819 5.4345,4.307 7.2702,7.1746 1.5173,2.37 2.3042,5.183 2.8699,7.9398 0.443,2.1591 0.6536,4.4135 0.3826,6.6007 -0.2878,2.3219 -1.1893,4.543 -2.1046,6.6961 -0.7815,1.8386 -2.3094,3.3439 -2.8698,5.2615 -0.3747,1.2827 -0.2772,3.9992 -0.2772,3.9992 l 0.068,2.5027 -2.638,-2.0969 1.2176,3.6528 v 0 c 0,0 -1.6996,0.036 -2.4352,0.4057 -0.6984,0.3505 -1.2598,0.9719 -1.6911,1.6235 -0.3206,0.4843 -0.6198,1.6286 -0.6198,1.6286 l 13.5396,-3.2521 c 0,0 2.9777,0.9067 4.1938,1.8263 1.4186,1.0727 3.3822,4.1263 3.3822,4.1263 0,0 -2.2985,-0.3915 -3.4499,-0.5749 -0.5179,-0.082 -1.5556,-0.2368 -1.5556,-0.2368 l 1.2174,1.894 v 0 l -6.3583,-0.068 -11.0934,0.203 h -9.0642 l -0.6764,-2.6382 -0.4058,-1.2851 -0.8118,1.1838 c 0,0 -1.206,-2.317 -2.2321,-3.2808 -1.052,-0.9881 -3.8117,-2.0541 -3.8117,-2.0541 l -0.1455,1.4454 c 0,0 -3.6659,-4.6507 -5.4452,-6.6291 -1.6756,-1.8628 -3.5666,-3.5377 -5.5467,-5.0731 -1.5319,-1.1881 -4.8702,-3.1792 -4.8702,-3.1792 0,0 7.5709,2.9238 10.8228,5.2761 1.9119,1.3832 4.938,5.0732 4.938,5.0732 l 0.033,-1.0315 c 0,0 3.1044,1.1593 4.5213,2.2628 0.7704,0.6002 2.1752,2.2861 2.1752,2.2861 l -1.1836,-6.3583 c 0,0 2.8399,1.2014 4.0617,2.117 1.0929,0.8192 2.8378,2.9562 2.8378,2.9562 l 0.068,-1.6235 3.7879,2.2999 c 0,0 0.082,-1.2253 0.3099,-1.9376 0.1826,-0.5715 0.7587,-1.8041 0.7587,-1.8041 l 1.5019,1.4418 -2.2323,-7.576 4.3292,4.1263 c 0,0 0.427,-4.9248 1.3451,-7.1802 0.6069,-1.4907 2.6784,-4.0177 2.6784,-4.0177 l -0.5738,3.2525 c 0,0 1.9942,-4.2286 2.1045,-6.505 0.1299,-2.6738 -1.7219,-7.8441 -1.7219,-7.8441 l 1.6262,1.6262 c 0,0 -2.7549,-6.1173 -4.4072,-8.139 -2.4207,-2.9621 -2.5796,-2.9575 -4.5731,-4.694 -2.0811,-1.8128 -6.6964,-4.5097 -6.6964,-4.5097 z"
             style="fill:#4f3c2f;fill-opacity:1;stroke:none;stroke-width:1px;stroke-linecap:butt;stroke-linejoin:miter;stroke-opacity:1" />
          <path
             sodipodi:nodetypes="csscccscscccccc"
             inkscape:connector-curvature="0"
             id="path5948"
             d="m -1007.8423,-2328.047 c 0,0 -1.5507,1.6987 -2.0799,2.7055 -0.7167,1.3633 -1.3585,2.8579 -1.4206,4.3968 -0.029,0.7004 0.1242,2.5488 0.1242,2.5488 l 1.4989,-2.8195 -0.4059,4.1263 c 0,0 0.3595,3.1294 1.0146,4.532 0.5649,1.2095 2.4352,3.1792 2.4352,3.1792 0,0 -2.873,-1.4525 -3.788,-2.7057 -0.9923,-1.3588 -1.544,-4.8056 -1.544,-4.8056 l -0.3501,2.0999 -1.2176,-5.6819 0.6004,-3.5244 2.303,-3.1158 z"
             style="fill:#4f3c2f;fill-opacity:1;stroke:none;stroke-width:1px;stroke-linecap:butt;stroke-linejoin:miter;stroke-opacity:1" />
          <path
             style="fill:#4f3c2f;fill-opacity:1;stroke:none;stroke-width:2.70000005;stroke-linecap:butt;stroke-linejoin:miter;stroke-miterlimit:4;stroke-dasharray:none;stroke-opacity:1"
             d="m -997.49093,-2327.9141 c 0,0 -0.69043,-1.425 -1.4588,-1.8415 -0.69274,-0.3756 -1.66727,-0.6031 -2.35377,-0.2165 -0.5644,0.3179 -0.8329,1.0995 -0.8508,1.7471 -0.017,0.6044 0.3281,1.1891 0.8701,1.4569 0.8696,0.4296 2.14609,0.2505 2.86308,-0.1845 0.39205,-0.2379 0.93019,-0.9615 0.93019,-0.9615 z"
             id="path5950"
             inkscape:connector-curvature="0"
             sodipodi:nodetypes="csssssc" />
          <path
             sodipodi:nodetypes="csscsccasccsscccccscsccsccsccscssccscccsccscssccc"
             inkscape:connector-curvature="0"
             id="path5952"
             d="m -1006.7461,-2331.5732 c 0,0 2.8287,-3.1925 4.7042,-4.0839 1.602,-0.7614 3.47224,-0.7988 5.24227,-0.9131 1.29496,-0.084 3.88952,0.1692 3.88952,0.1692 0,0 2.18027,-0.9815 3.34821,-1.1499 1.2622,-0.1822 3.82182,0.169 3.82182,0.169 l -2.46897,2.2999 c 0,0 1.80929,-0.5306 2.7057,-0.3721 1.09115,0.193 2.06523,0.8725 2.93811,1.5551 0.44114,0.3451 1.12045,1.2521 1.12045,1.2521 l -2.02928,0.068 c 0,0 1.57631,1.1563 2.17378,1.9148 0.99313,1.2605 1.71531,2.7433 2.24811,4.2569 0.72507,2.0604 1.24358,6.4333 1.24358,6.4333 l 1.91048,3.9336 -1.0822,1.1838 -1.01464,1.0991 0.67643,0.085 c 0,0 -0.71237,2.1158 -1.35285,3.0102 -1.1844,1.6536 -4.46447,4.16 -4.46447,4.16 0,0 -5.34371,3.2469 -5.51289,3.2469 -0.16904,0 -2.36749,1.2851 -2.36749,1.2851 l -5.34371,-1.5896 c 0,0 3.08231,-0.042 4.58818,-0.3314 1.21211,-0.2333 3.52893,-1.1229 3.52893,-1.1229 l 4.70121,-3.1115 c 0,0 2.14519,-1.7714 3.04391,-2.8242 0.40101,-0.4696 1.03153,-1.5388 1.03153,-1.5388 l -2.06305,0.051 c 0,0 2.17796,-1.9853 2.9931,-3.1961 0.27052,-0.4017 0.60873,-1.3191 0.60873,-1.3191 0,0 -0.86163,-1.5978 -1.0822,-2.4688 -0.52081,-2.056 -0.41977,-4.4824 -1.05202,-6.6281 -0.4062,-1.3784 -1.69857,-3.6141 -1.69857,-3.6141 l 0.38815,2.253 c 0,0 -1.53978,-2.7493 -2.64709,-3.8409 -0.58794,-0.5799 -2.0596,-1.3768 -2.0596,-1.3768 l -1.94165,-1.1438 h 3.4198 c 0,0 -1.77565,-0.5961 -2.96553,-0.5262 -1.19855,0.071 -3.56329,0.5262 -3.56329,0.5262 l 2.34367,-2.5112 c 0,0 -2.34367,0.5979 -2.48716,0.5979 -0.14291,0 -1.93718,1.1241 -1.93718,1.1241 0,0 -3.02501,-0.4804 -4.54386,-0.4065 -1.28833,0.062 -2.63497,0.169 -3.80247,0.7174 -1.1993,0.5631 -3.0612,2.535 -3.0612,2.535 l -1.1616,1.3192 z"
             style="fill:#4f3c2f;fill-opacity:1;stroke:none;stroke-width:1px;stroke-linecap:butt;stroke-linejoin:miter;stroke-opacity:1" />
          <path
             sodipodi:nodetypes="csscccccsssccccccacscsscccscscc"
             inkscape:connector-curvature="0"
             id="path5954"
             d="m -989.71838,-2302.7433 c 0,0 -1.08508,0.6691 -1.49778,1.1424 -1.0998,1.2616 -1.81881,2.896 -2.72591,4.3024 -0.95228,1.4767 -2.85525,4.3246 -2.85525,4.3246 l -0.43046,-1.435 -2.0567,3.7786 -2.00892,2.6307 v -1.7218 c 0,0 -0.7503,1.505 -1.6736,2.622 -1.8738,2.2671 -4.6712,5.0462 -4.8314,5.1743 -0.2391,0.1913 -3.4019,2.9794 -5.2613,4.2569 -1.0774,0.7403 -3.396,1.961 -3.396,1.961 l -2.1524,1.9612 -0.5739,-2.0089 -1.8655,-4.5918 3.8193,-3.1352 -1.5586,3.7 c 0,0 0.7805,-0.1183 1.1306,-0.288 2.2408,-1.0848 5.9358,-4.5337 5.9358,-4.5337 0,0 -1.6449,2.7549 -2.5995,4.0409 -0.4932,0.6645 -0.653,0.8856 -0.653,0.8856 0,0 3.3325,-1.7531 5.6439,-3.7786 2.0523,-1.7982 3.9998,-3.7423 5.6919,-5.883 1.4315,-1.8114 3.73076,-5.8354 3.73076,-5.8354 l 0.23918,1.961 2.39406,-4.5979 c 0,0 0.12847,0.655 0.12991,0.9867 0,0.3614 -10e-4,0.8729 -10e-4,0.8729 0,0 2.41946,-4.0346 3.95174,-5.9675 0.37098,-0.468 1.22914,-1.3035 1.22914,-1.3035 z"
             style="fill:#4f3c2f;fill-opacity:1;stroke:none;stroke-width:1px;stroke-linecap:butt;stroke-linejoin:miter;stroke-opacity:1" />
          <path
             sodipodi:nodetypes="csscscccscccccsccscsscssccsacccsscsscccccscsccsccccccccccacc"
             inkscape:connector-curvature="0"
             id="path5956"
             d="m -1028.3654,-2306.3665 c 0,0 3.683,4.6265 5.0187,7.2422 0.5738,1.1238 1.1222,2.3274 1.2562,3.5711 0.1671,1.5531 -0.1526,4.6838 -0.1526,4.6838 0,0 -0.4882,3.1996 -0.1198,5.4049 0.4998,2.9902 3.1807,9.7096 3.1807,9.7096 l 1.5545,3.1328 3.5873,-0.1913 c 0,0 1.339,0.1917 1.8654,0.574 1.1991,0.8706 2.5111,3.5155 2.5589,3.6351 0.048,0.1199 0.1675,1.0524 0.1675,1.0524 l -2.3916,-1.5068 -2.1285,-0.6936 -1.1958,0.1198 c 0,0 1.2986,0.51 1.8415,0.9327 1.0344,0.8053 2.5829,2.9655 2.5829,2.9655 l 0.3826,0.5262 c 0,0 -1.8423,-0.1842 -2.7503,-0.3587 -1.1172,-0.2148 -3.3072,-0.8449 -3.3072,-0.8449 0,0 0.8013,0.6597 1.3223,1.0839 0.4672,0.3805 1.078,0.5493 1.5663,0.9021 0.4201,0.3034 1.16,1.0351 1.16,1.0351 0,0 -1.7807,0.3066 -2.6784,0.287 -1.8569,-0.041 -3.0542,-0.3498 -5.509,-0.8342 -0.5228,-0.1025 -1.4503,-0.6726 -1.4503,-0.6726 l -3.307,-3.6067 c 0,0 -3.8383,-3.4664 -5.9509,-4.9595 -1.2278,-0.8676 -2.5345,-1.4989 -3.5983,-2.4994 -0.9363,-0.8804 -2.3898,-3.0257 -2.3898,-3.0257 l 1.8603,0.4395 0.8302,0.2115 c 0,0 -1.5326,-1.7889 -2.1285,-2.7981 -0.5009,-0.8482 -0.8867,-1.767 -1.1958,-2.7024 -0.182,-0.5509 -0.3825,-1.698 -0.3825,-1.698 0,0 1.1317,1.7487 1.65,2.4155 1.2093,1.5555 2.4461,3.1231 3.946,4.4003 0.9884,0.8416 3.2765,2.1047 3.2765,2.1047 l -2.7024,-0.095 1.5767,1.6459 7.5827,6.1505 -1.2913,-2.6069 c 0,0 1.0376,1.0102 1.6739,1.3317 0.3096,0.1563 1.0045,0.2708 1.0045,0.2708 0,0 -0.5765,-1.5312 -0.7892,-2.3199 -0.3048,-1.1305 -0.6936,-3.4437 -0.6936,-3.4437 l 3.109,4.2329 c 0,0 0.037,-0.9103 -0.033,-1.3575 -0.089,-0.5765 -0.4938,-1.6797 -0.4938,-1.6797 l 1.2915,1.7698 -0.5023,-1.2676 -2.5589,-5.4526 -2.1033,-6.0506 -0.4008,-3.1226 1.0785,2.3434 -0.03,-2.0205 -0.1463,-2.4856 0.6218,1.435 c 0,0 0.1154,-4.7425 -0.4784,-7.0072 -0.3713,-1.4177 -1.8892,-3.9699 -1.8892,-3.9699 z"
             style="fill:#4f3c2f;fill-opacity:1;stroke:none;stroke-width:1px;stroke-linecap:butt;stroke-linejoin:miter;stroke-opacity:1" />
          <path
             sodipodi:nodetypes="ccsc"
             inkscape:connector-curvature="0"
             id="path5958"
             d="m -1083.3713,-2289.16 -2.5589,5.8482 c 0,0 1.8698,-1.6726 2.325,-2.796 0.3833,-0.9457 0.2339,-3.0522 0.2339,-3.0522 z"
             style="fill:#4f3c2f;fill-opacity:1;stroke:none;stroke-width:1px;stroke-linecap:butt;stroke-linejoin:miter;stroke-opacity:1" />
          <path
             sodipodi:nodetypes="ccsc"
             style="fill:#4f3c2f;fill-opacity:1;stroke:none;stroke-width:1px;stroke-linecap:butt;stroke-linejoin:miter;stroke-opacity:1"
             d="m -1080.2698,-2292.1722 -2.1045,6.0266 c 0,0 1.7364,-1.8106 2.1045,-2.9654 0.3099,-0.9723 0,-3.0612 0,-3.0612 z"
             id="path5960"
             inkscape:connector-curvature="0" />
          <path
             sodipodi:nodetypes="cscsc"
             inkscape:connector-curvature="0"
             id="path5962"
             d="m -1079.1788,-2297.8538 c 0,0 -2.2374,3.6571 -2.4606,6.1873 -0.04,0.4613 -0.4166,2.052 -0.4166,2.052 0,0 2.374,-2.4753 2.8772,-4.0542 0.4238,-1.3292 0,-4.1851 0,-4.1851 z"
             style="fill:#4f3c2f;fill-opacity:1;stroke:none;stroke-width:1px;stroke-linecap:butt;stroke-linejoin:miter;stroke-opacity:1" />
          <path
             sodipodi:nodetypes="cscscssccccccccscscssccsccsscccccscccccsscccscc"
             inkscape:connector-curvature="0"
             id="path5964"
             d="m -998.51928,-2292.5435 c 0,0 0.98072,2.8224 1.74592,4.1852 0.77834,1.3863 2.81469,3.9068 2.81469,3.9068 0,0 5.64814,0.947 5.9188,0.947 0.27051,0 2.09683,0.5072 2.09683,0.5072 0,0 3.09184,2.0787 4.22774,3.5175 0.77155,0.9776 1.25628,2.1692 1.65729,3.3483 0.52168,1.5344 0.94693,4.7689 0.94693,4.7689 l -2.19845,-2.3675 0.61883,2.498 0.0678,1.7063 -1.8614,-2.2719 -1.86717,-1.9967 0.32912,2.274 -0.0722,2.117 c 0,0 -1.11236,-1.1793 -1.24762,-1.2808 -0.13569,-0.101 -2.42667,-2.8431 -2.42667,-2.8431 0,0 -1.45606,-0.4423 -2.02928,-0.9132 -0.96195,-0.7903 -2.16453,-3.0439 -2.16453,-3.0439 0,0 -4.28418,0.1757 -6.42605,0.2707 -0.96961,0.043 -1.9463,0.2618 -2.9087,0.1356 -0.516,-0.068 -1.4881,-0.4734 -1.4881,-0.4734 l 1.4331,-0.396 c 0,0 -1.828,-0.208 -2.6507,-0.5849 -1.6766,-0.7684 -4.4305,-3.3144 -4.4305,-3.3144 l 1.6234,-2.5029 c 0,0 1.4615,2.5488 2.7057,3.3483 0.958,0.6158 2.3852,1.458 3.4836,1.7588 1.22882,0.3365 3.82178,-0.068 3.82178,-0.068 l -0.87938,0.6088 6.18931,-0.4059 1.99551,1.4881 -0.99689,-2.2974 c 0,0 0.61436,0.1597 1.30782,0.072 0.35799,-0.046 1.83758,-0.4618 1.83758,-0.4618 l -1.61687,-1.1878 1.08407,-0.066 1.83282,0.2542 -3.1441,-0.9454 c 0,0 1.55566,-0.1299 1.42041,-0.1299 -0.13569,0 -2.81974,-0.6546 -4.26152,-0.8514 -1.06256,-0.1449 -3.21295,-0.169 -3.21295,-0.169 l -2.7057,-3.0778 1.01464,0.4397 c 0,0 -1.84191,-1.7308 -2.53667,-2.7733 -0.37979,-0.5699 -0.86526,-1.8636 -0.86526,-1.8636 z"
             style="fill:#4f3c2f;fill-opacity:1;stroke:none;stroke-width:1px;stroke-linecap:butt;stroke-linejoin:miter;stroke-opacity:1" />
          <path
             sodipodi:nodetypes="cscsscsscccccccc"
             inkscape:connector-curvature="0"
             id="path5966"
             d="m -1025.9535,-2269.3334 c 0,0 -1.4696,1.3699 -2.2999,1.9278 -0.7617,0.5119 -2.4351,1.2852 -2.4351,1.2852 0,0 2.3336,-2.6042 1.8939,-2.4351 -0.4397,0.1691 -2.0749,1.2432 -3.2129,1.6234 -1.3361,0.4463 -4.1601,0.7441 -4.1601,0.7441 0,0 2.5197,0.4227 2.3844,0.4904 -0.1357,0.068 -1.2542,0.619 -1.894,0.8963 -0.5295,0.2295 -6.7135,1.691 -6.7135,1.691 l 3.7542,0.372 v 0 l 3.5513,0.8794 2.1983,-0.7441 4.0585,-2.1983 4.1263,-2.9425 z"
             style="fill:#4f3c2f;fill-opacity:1;stroke:none;stroke-width:1px;stroke-linecap:butt;stroke-linejoin:miter;stroke-opacity:1" />
          <path
             sodipodi:nodetypes="csssssccsssscsccccc"
             inkscape:connector-curvature="0"
             id="path5968"
             d="m -1001.8051,-2334.8793 c 0,0 -1.9791,-1.7778 -3.219,-2.0987 -1.0832,-0.2803 -2.3192,-0.2001 -3.3482,0.239 -0.8306,0.3546 -1.5954,1.0148 -2.009,1.8177 -0.316,0.6136 -0.3906,1.3833 -0.239,2.0567 0.1313,0.5869 0.5463,1.0904 0.9566,1.5306 0.2956,0.3172 1.0522,0.7653 1.0522,0.7653 l 1.8654,-1.0045 c 0,0 -1.4894,-0.2056 -1.961,-0.7175 -0.3251,-0.3526 -0.4395,-0.9108 -0.3827,-1.387 0.058,-0.4889 0.3317,-0.9852 0.7175,-1.2914 0.5909,-0.4691 1.4248,-0.6901 2.1763,-0.6218 0.8592,0.078 2.3197,1.1478 2.3197,1.1478 0,0 -1.5357,-0.2441 -2.2959,-0.1429 -0.6422,0.085 -1.8414,0.6219 -1.8414,0.6219 l 2.3198,0.2872 -1.2915,0.8608 h 2.1524 z"
             style="fill:#4f3c2f;fill-opacity:1;stroke:none;stroke-width:1px;stroke-linecap:butt;stroke-linejoin:miter;stroke-opacity:1" />
          <path
             sodipodi:nodetypes="csssssccssscccsscscsscccc"
             inkscape:connector-curvature="0"
             id="path5970"
             d="m -979.24879,-2326.6148 c 0,0 1.71445,0.2987 2.47143,0.6984 0.79263,0.4184 1.56505,0.9795 2.06305,1.7248 0.43984,0.6581 0.74067,1.4751 0.71021,2.266 -0.0303,0.7888 -0.37315,1.5929 -0.87938,2.1985 -0.34096,0.4079 -0.85052,0.6708 -1.35286,0.8454 -0.48198,0.1678 -1.52188,0.1692 -1.52188,0.1692 l -0.0751,-1.5129 c 0,0 1.05405,0.081 1.4272,-0.2458 0.46639,-0.4088 0.81948,-1.0376 0.8456,-1.6573 0.0245,-0.5961 -0.26488,-1.2253 -0.67642,-1.6572 -0.49758,-0.5222 -1.96173,-0.9131 -1.96173,-0.9131 l -0.81168,-0.1011 0.50739,1.0714 c 0,0 0.70559,0.1083 1.00454,0.287 0.3629,0.2168 0.66978,0.5447 0.88487,0.9086 0.0982,0.165 0.1673,0.5502 0.1673,0.5502 0,0 -0.57538,-0.4425 -0.90869,-0.574 -0.15849,-0.062 -0.50219,-0.095 -0.50219,-0.095 0,0 0.34225,0.4502 0.40649,0.7174 0.0433,0.1784 -0.0245,0.6696 -0.0245,0.5501 0,-0.1198 -0.74124,-0.9088 -0.74124,-0.9088 l -0.83709,-1.5545 -0.48516,-1.9148 z"
             style="fill:#4f3c2f;fill-opacity:1;stroke:none;stroke-width:1px;stroke-linecap:butt;stroke-linejoin:miter;stroke-opacity:1" />
          <path
             sodipodi:nodetypes="cccsssssssccccccccccsssssssscc"
             inkscape:connector-curvature="0"
             id="path5972"
             d="m -1096.3087,-2274.894 -12.1252,3.2525 -27.1676,4.6873 c 0,0 -9.3432,1.0958 -13.5839,2.9656 -1.4652,0.6461 -3.1161,1.3903 -3.9222,2.7741 -0.4839,0.8309 -0.4804,1.9282 -0.287,2.8698 0.2786,1.3562 0.9564,2.736 2.009,3.6352 2.347,2.0047 5.6513,2.7083 8.7052,3.1568 5.0557,0.7427 10.2263,-0.303 15.3057,-0.8609 4.1114,-0.4515 8.2065,-1.1141 12.2447,-2.0089 6.0222,-1.3344 19.4909,-5.3329 19.4909,-5.3329 l 0.5262,-2.272 -2.3199,-1.1959 -14.9993,-2.0452 11.3164,3.6235 c -1.6503,0.8852 -8.753,2.5351 -8.753,2.5351 l -14.9023,-2.6389 11.5542,3.4041 -11.1923,2.5829 -14.3971,-1.7698 c 0,0 10.2357,2.2959 9.8532,2.3916 -0.3827,0.095 -6.149,0.9233 -9.614,0.9089 -2.9544,-0.014 -6.0789,0.097 -8.8009,-1.0523 -1.7755,-0.7495 -4.0735,-1.7548 -4.496,-3.6352 -0.2096,-0.9322 0.5566,-1.9186 1.2436,-2.5829 1.478,-1.4291 3.682,-1.8726 5.644,-2.4871 6.5408,-2.0484 13.4363,-2.7221 20.1845,-3.9222 6.1057,-1.0858 12.3547,-1.4444 18.3669,-2.9654 3.3802,-0.8551 10.6184,-2.822 10.6184,-2.822 z"
             style="fill:#4f3c2f;fill-opacity:1;stroke:none;stroke-width:1px;stroke-linecap:butt;stroke-linejoin:miter;stroke-opacity:1" />
          <path
             sodipodi:nodetypes="cszccscc"
             inkscape:connector-curvature="0"
             id="path5974"
             d="m -1084.532,-2261.1487 c 0.8687,-2.6579 7.6739,-0.4036 10.6198,-0.3382 2.9459,0.065 3.7671,0.1155 5.7834,0.101 2.0165,-0.014 5.6298,-0.255 5.6298,-0.255 l 2.8758,3.7319 c 0,0 -5.8062,-0.2766 -9.9986,-0.4338 -4.3218,-0.1621 -15.8295,-1.1978 -15.8295,-1.1978 z"
             style="fill:#4f3c2f;fill-opacity:1;stroke:none;stroke-width:1px;stroke-linecap:butt;stroke-linejoin:miter;stroke-opacity:1" />
          <path
             style="fill:#4f3c2f;fill-opacity:1;stroke:none;stroke-width:2.70000005;stroke-linecap:butt;stroke-linejoin:miter;stroke-miterlimit:4;stroke-dasharray:none;stroke-opacity:1"
             d="m -984.82692,-2323.1769 c 0,0 1.29165,-0.4656 1.93733,-0.3474 0.93813,0.1717 1.63765,0.6561 1.78301,1.5987 0.10971,0.7078 -0.29057,1.3712 -0.94693,1.6573 -0.66777,0.291 -1.47628,0.1933 -2.02019,-0.2913 -0.67787,-0.6039 -0.75322,-2.6173 -0.75322,-2.6173 z"
             id="path5976"
             inkscape:connector-curvature="0"
             sodipodi:nodetypes="cssssc" />
          <ellipse
             transform="rotate(35.526315)"
             ry="0.57581174"
             rx="0.93168294"
             cy="-1313.9915"
             cx="-2168.4968"
             id="ellipse5978"
             style="opacity:1;fill:#ffffff;fill-opacity:1;stroke:none;stroke-width:2.70000005;stroke-linecap:round;stroke-linejoin:round;stroke-miterlimit:4;stroke-dasharray:none;stroke-dashoffset:0;stroke-opacity:1;paint-order:markers fill stroke" />
          <ellipse
             inkscape:transform-center-y="-5.4037763"
             inkscape:transform-center-x="15.502738"
             style="opacity:1;fill:#ffffff;fill-opacity:1;stroke:none;stroke-width:2.70000005;stroke-linecap:round;stroke-linejoin:round;stroke-miterlimit:4;stroke-dasharray:none;stroke-dashoffset:0;stroke-opacity:1;paint-order:markers fill stroke"
             id="ellipse5980"
             cx="-2150.7207"
             cy="-1319.1135"
             rx="0.93168294"
             ry="0.57581174"
             transform="rotate(35.526315)" />
          <path
             sodipodi:nodetypes="sasscccsscsscccsasscs"
             inkscape:connector-curvature="0"
             id="path5982"
             d="m -994.11082,-2325.519 c -0.82236,0.045 -1.34895,0.3272 -1.77565,0.8202 -0.28481,0.3289 -0.36911,0.8161 -0.37199,1.2513 0,0.5389 0.0866,1.1485 0.43969,1.5557 0.14536,0.1679 0.47347,0.3044 0.60872,0.2707 0.13569,-0.033 0.43969,-0.7271 0.43969,-0.7271 l 0.5074,0.3889 c 0,0 -0.25291,0.5501 -0.27066,0.8454 -0.0173,0.298 0.0404,0.6103 0.16918,0.8794 0.2773,0.578 1.24603,1.465 1.24603,1.465 0,0 1.43961,-0.2145 2.0684,-0.5518 0.34485,-0.185 0.56917,-0.4615 0.74413,-0.8117 0.12558,-0.2529 0.20295,-0.8117 0.20295,-0.8117 l 0.64251,-0.068 -0.13569,0.9471 c 0,0 0.54651,0.1184 0.7779,0.033 0.41746,-0.1515 0.87881,-0.4027 1.1499,-0.7779 0.31569,-0.4368 0.53077,-1.0246 0.43969,-1.5558 -0.10682,-0.6257 -0.5429,-1.1226 -1.01551,-1.5318 -0.82539,-0.7147 -1.94526,-1.1097 -2.97535,-1.3767 -1.11135,-0.2819 -1.75617,-0.3069 -2.89177,-0.245 z"
             style="fill:#4f3c2f;fill-opacity:1;stroke:none;stroke-width:1px;stroke-linecap:butt;stroke-linejoin:miter;stroke-opacity:1" />
          <path
             sodipodi:nodetypes="cssccscssccc"
             inkscape:connector-curvature="0"
             id="path5984"
             d="m -992.85685,-2319.2381 c 0,0 -1.09663,0.6935 -1.71791,0.828 -0.46943,0.1011 -0.96513,0.036 -1.44047,-0.033 -0.52255,-0.075 -1.52853,-0.4158 -1.52853,-0.4158 l 0.64914,0.9029 c 0,0 -1.6453,-0.017 -2.42739,-0.2391 -0.71309,-0.2031 -1.99679,-0.9805 -1.99679,-0.9805 0,0 0.8436,1.0195 1.2914,1.3631 0.50257,0.3858 0.86374,0.5583 1.48271,0.6936 0.68639,0.1499 1.40309,0.1596 2.10449,0.1198 1.12059,-0.1126 2.14707,-0.2851 3.08506,-0.8849 z"
             style="fill:#4f3c2f;fill-opacity:1;stroke:none;stroke-width:1px;stroke-linecap:butt;stroke-linejoin:miter;stroke-opacity:1" />
          <path
             style="fill:#4f3c2f;fill-opacity:1;stroke:none;stroke-width:1px;stroke-linecap:butt;stroke-linejoin:miter;stroke-opacity:1"
             d="m -992.90174,-2319.2538 c 0,0 0.42641,1.2255 0.82872,1.7176 0.30414,0.3717 0.73272,0.6293 1.14744,0.8715 0.45629,0.2659 1.4552,0.6262 1.4552,0.6262 l -1.07022,0.3022 c 0,0 1.298,1.0114 2.04833,1.3243 0.68451,0.2851 2.1732,0.4759 2.1732,0.4759 0,0 -1.29497,0.2726 -1.85938,0.2628 -0.63341,-0.015 -1.02344,-0.1011 -1.59204,-0.3804 -0.63052,-0.3101 -1.19724,-0.7488 -1.72138,-1.2167 -0.80663,-0.786 -1.50254,-1.56 -1.86327,-2.6134 z"
             id="path5986"
             inkscape:connector-curvature="0"
             sodipodi:nodetypes="cssccscssccc" />
          <path
             sodipodi:nodetypes="csasaasccaaccccsscc"
             inkscape:connector-curvature="0"
             id="path5988"
             d="m -990.74673,-2314.9042 c 0,0 -0.62937,1.7475 -1.1958,2.4632 -0.34456,0.4355 -0.69115,0.8918 -1.17314,1.1538 -0.5735,0.3118 -1.28905,0.4128 -1.91192,0.4246 -0.78093,0.014 -1.64834,-0.2348 -2.25504,-0.7431 -0.49382,-0.4137 -0.72435,-1.0862 -0.91706,-1.7009 -0.17019,-0.543 -0.19906,-1.1275 -0.19242,-1.6966 0.0144,-0.7183 0.29274,-2.1351 0.29274,-2.1351 l 0.73922,-0.2222 c 0,0 -0.39249,2.0525 -0.22186,3.0611 0.11692,0.6878 0.32753,1.437 0.82958,1.9212 0.17033,0.1642 0.56571,0.3532 0.66141,0.2576 0.0664,-0.066 1.69237,-4.0924 2.47792,-5.7714 0.21018,-0.2789 0.45976,0.1285 0.45976,0.1285 l -2.15342,5.944 c 0,0 0.52688,0.1451 0.79003,0.1083 0.51519,-0.074 0.86957,-0.151 1.42633,-0.6341 0.94896,-0.8238 1.86529,-3.2765 1.86529,-3.2765 z"
             style="fill:#4f3c2f;fill-opacity:1;stroke:none;stroke-width:1px;stroke-linecap:butt;stroke-linejoin:miter;stroke-opacity:1" />
          <path
             sodipodi:nodetypes="cccc"
             inkscape:connector-curvature="0"
             id="path5990"
             d="m -1143.9523,-2264.7739 c 0.8717,0.1155 15.941,1.2213 15.941,1.2213 l -9.6683,-2.3819 z"
             style="fill:#4f3c2f;fill-opacity:1;stroke:none;stroke-width:1px;stroke-linecap:butt;stroke-linejoin:miter;stroke-opacity:1" />
          <path
             sodipodi:nodetypes="cccc"
             style="fill:#4f3c2f;fill-opacity:1;stroke:none;stroke-width:1px;stroke-linecap:butt;stroke-linejoin:miter;stroke-opacity:1"
             d="m -1121.0416,-2268.8873 c 0.8719,0.1155 15.9412,1.2213 15.9412,1.2213 l -10.2135,-1.9268 z"
             id="path5992"
             inkscape:connector-curvature="0" />
          <path
             sodipodi:nodetypes="ccsccccsccccccccccccsccccc"
             inkscape:connector-curvature="0"
             id="path5994"
             d="m -1141.6283,-2254.2791 5.2615,0.095 c 0,0 3.7476,-3.983 5.8353,-5.7396 0.9005,-0.7577 2.8699,-2.0568 2.8699,-2.0568 l -2.9539,4.0178 -0.7291,1.1 6.9355,1.1001 c 0,0 1.8056,-2.425 2.8698,-3.4915 1.5917,-1.5955 5.2135,-4.3048 5.2135,-4.3048 l -3.2047,4.6873 c -0.4869,0.6984 -1.0743,1.7848 -1.4554,2.5451 l 6.669,-1.8753 -9.2793,-3.1569 13.7275,2.2481 4.3047,-7.4137 -1.1,6.4571 5.5483,-1.5785 -4.7831,-1.961 6.4571,0.287 0.6696,3.7307 c 0,0 -17.4102,4.1134 -17.7929,4.1134 -0.2592,0 -12.7112,0.4368 -12.7112,0.4368 l -3.0477,-0.943 -1.3644,1.5585 -7.7486,1.6263 z"
             style="fill:#4f3c2f;fill-opacity:1;stroke:none;stroke-width:1px;stroke-linecap:butt;stroke-linejoin:miter;stroke-opacity:1" />
          <path
             style="fill:#4f3c2f;fill-opacity:1;stroke:none;stroke-width:1px;stroke-linecap:butt;stroke-linejoin:miter;stroke-opacity:1"
             d="m -1150.7921,-2263.3167 c 0.673,0.09 12.3061,0.9429 12.3061,0.9429 l -7.4637,-1.8387 z"
             id="path5996"
             inkscape:connector-curvature="0"
             sodipodi:nodetypes="cccc" />
          <path
             style="fill:#4f3c2f;fill-opacity:1;stroke:none;stroke-width:1px;stroke-linecap:butt;stroke-linejoin:miter;stroke-opacity:1"
             d="m -1011.5475,-2287.774 -4.5181,4.5097 c 0,0 2.3514,-0.8742 3.1855,-1.7537 0.7022,-0.7404 1.3326,-2.756 1.3326,-2.756 z"
             id="path5998"
             inkscape:connector-curvature="0"
             sodipodi:nodetypes="ccsc" />
          <path
             inkscape:connector-curvature="0"
             id="path6000"
             d="m -1007.5601,-2289.4453 -4.1603,4.8417 c 0,0 2.2777,-1.0513 3.0422,-1.9919 0.6436,-0.7919 1.1181,-2.8498 1.1181,-2.8498 z"
             style="fill:#4f3c2f;fill-opacity:1;stroke:none;stroke-width:1px;stroke-linecap:butt;stroke-linejoin:miter;stroke-opacity:1"
             sodipodi:nodetypes="ccsc" />
          <path
             style="fill:#4f3c2f;fill-opacity:1;stroke:none;stroke-width:1px;stroke-linecap:butt;stroke-linejoin:miter;stroke-opacity:1"
             d="m -1004.4693,-2294.3357 c 0,0 -3.4186,2.5872 -4.5505,4.861 -0.2062,0.4147 -1.1373,1.7582 -1.1373,1.7582 0,0 3.1141,-1.4373 4.1593,-2.7234 0.8798,-1.0824 1.5285,-3.8958 1.5285,-3.8958 z"
             id="path6002"
             inkscape:connector-curvature="0"
             sodipodi:nodetypes="cscsc" />
          <path
             sodipodi:nodetypes="ccsc"
             inkscape:connector-curvature="0"
             id="path6004"
             d="m -1072.5063,-2314.0847 4.5181,-4.5097 c 0,0 -2.3514,0.8742 -3.1855,1.7536 -0.7023,0.7405 -1.3326,2.7561 -1.3326,2.7561 z"
             style="fill:#4f3c2f;fill-opacity:1;stroke:none;stroke-width:1px;stroke-linecap:butt;stroke-linejoin:miter;stroke-opacity:1" />
          <path
             sodipodi:nodetypes="ccsc"
             style="fill:#4f3c2f;fill-opacity:1;stroke:none;stroke-width:1px;stroke-linecap:butt;stroke-linejoin:miter;stroke-opacity:1"
             d="m -1076.4937,-2312.4136 4.1603,-4.8417 c 0,0 -2.2777,1.0513 -3.0422,1.9921 -0.6437,0.7917 -1.1181,2.8496 -1.1181,2.8496 z"
             id="path6006"
             inkscape:connector-curvature="0" />
          <path
             sodipodi:nodetypes="cscsc"
             inkscape:connector-curvature="0"
             id="path6008"
             d="m -1079.5846,-2307.523 c 0,0 3.4187,-2.5873 4.5505,-4.8612 0.2063,-0.4147 1.1374,-1.758 1.1374,-1.758 0,0 -3.1141,1.4373 -4.1593,2.7232 -0.88,1.0826 -1.5286,3.896 -1.5286,3.896 z"
             style="fill:#4f3c2f;fill-opacity:1;stroke:none;stroke-width:1px;stroke-linecap:butt;stroke-linejoin:miter;stroke-opacity:1" />
          <path
             sodipodi:nodetypes="ccsaaasascssssaasssc"
             inkscape:connector-curvature="0"
             id="path6010"
             d="m -977.57855,-2258.2788 c 4.25,0.125 6.92833,0.2456 6.92833,0.2456 0,0 9.62437,-0.09 14.24112,-2.25 3.2344,-1.5134 5.86693,-3.5782 7.55805,-6.4179 2.06864,-3.4736 3.02982,-7.8609 2.49816,-11.8687 -0.57477,-4.3328 -2.62635,-8.8478 -5.95266,-11.6831 -2.64781,-2.257 -6.3104,-3.3058 -9.93306,-3.2058 -3.20278,0.088 -6.44606,0.8988 -8.91161,2.8005 -1.96807,1.518 -3.36169,3.8053 -3.96875,6.3125 -0.43244,1.786 0.34375,5.8125 0.34375,5.8125 0,0 -2.39705,-3.3068 -1.75,-7.25 0.54278,-3.3078 2.9359,-6.4287 5.75,-8.25 3.20387,-2.0735 7.45377,-2.8696 11.25,-2.4786 3.36363,0.3464 7.13792,1.7056 9.6875,3.9268 3.42151,2.9808 5.82863,7.3534 6.73928,11.7866 0.93486,4.551 0.33692,9.619 -1.58839,13.8473 -1.52834,3.3565 -4.23744,6.073 -7.46339,8.1679 -1.34939,0.8763 -2.70966,1.4061 -4.10579,1.7457 -2.47267,0.6013 -5.05782,0.6055 -7.89421,0.8793 -11.6518,1.1248 -13.42833,-2.1206 -13.42833,-2.1206 z"
             style="fill:#4f3c2f;fill-opacity:1;stroke:none;stroke-width:1px;stroke-linecap:butt;stroke-linejoin:miter;stroke-opacity:1" />
          <path
             style="fill:#4f3c2f;fill-opacity:1;stroke:none;stroke-width:0.99999988px;stroke-linecap:butt;stroke-linejoin:miter;stroke-opacity:1"
             d="m -971.53173,-2257.6619 c 2.44046,0.072 4.96164,0.4375 4.96164,0.4375 0,0 5.30493,-1.1197 7.7357,-2.2643 1.5597,-0.7344 3.00155,-1.1946 4.28197,-2.9005 1.28043,-1.7058 2.44267,-4.5112 2.18573,-6.9149 -0.26204,-2.4514 -1.7984,-4.8162 -3.6694,-6.4217 -1.53188,-1.3143 -3.57284,-2.2282 -5.65307,-2.1707 -1.83911,0.05 -3.87036,0.6338 -5.16804,1.938 -1.09678,1.1023 -1.74328,2.9003 -1.61604,4.3761 0.37039,4.296 4.17487,4.089 4.17487,4.089 0,0 -5.79586,1.1505 -5.73369,-5.5331 0.0179,-1.9248 1.59749,-4.0894 3.21342,-5.1352 1.83974,-1.1906 4.54532,-1.6429 6.72521,-1.4185 1.93149,0.199 4.62645,1.3558 6.09048,2.6312 1.96473,1.7117 3.3507,3.3727 4.09352,5.5474 0.70929,2.0766 0.64413,4.4437 0.14856,6.5814 -0.55189,2.3806 -1.52111,5.306 -3.37353,6.509 -2.14719,1.3943 -5.80655,1.9989 -9.23446,2.2886 -3.04213,0.2571 -7.02272,0.082 -9.47069,-0.01 -6.60218,-0.2453 0.30782,-1.6308 0.30782,-1.6308 z"
             id="path6012"
             inkscape:connector-curvature="0"
             sodipodi:nodetypes="ccazaasascssssaasssc" />
          <g
             style="stroke-width:1.62571573"
             transform="matrix(0.61511371,0,0,0.61511371,-373.45947,-1054.5424)"
             id="g6032">
            <path
               inkscape:connector-curvature="0"
               id="path6014"
               transform="translate(0,-1947.6378)"
               d="m -1037.7188,-13.078125 c -1.3377,0 -2.4281,0.981969 -2.6171,2.265625 h -0.039 V -10.421875 -5.5 h 37.3105 l 2.6954,-5.255859 h 3.76558 L -999.29883,-5.5 H -969.25 v -4.921875 -0.390625 h -0.0391 c -0.1891,-1.283588 -1.27943,-2.265625 -2.61719,-2.265625 z"
               style="opacity:1;fill:#4f3c2f;fill-opacity:1;stroke:none;stroke-width:4.38943243;stroke-linecap:round;stroke-linejoin:round;stroke-miterlimit:4;stroke-dasharray:none;stroke-dashoffset:0;stroke-opacity:1;paint-order:markers fill stroke" />
            <path
               inkscape:connector-curvature="0"
               id="path6016"
               transform="translate(0,-1947.6378)"
               d="m -998.9375,-27.0625 a 10.460207,9.46875 0 0 0 -10.459,9.46875 10.460207,9.46875 0 0 0 7.8399,9.1542969 l 1.1875,-2.3164059 h 3.76558 l -1.32226,2.5781246 a 10.460207,9.46875 0 0 0 9.44922,-9.4160156 10.460207,9.46875 0 0 0 -10.46094,-9.46875 z"
               style="opacity:1;fill:#4f3c2f;fill-opacity:1;stroke:none;stroke-width:4.38943243;stroke-linecap:round;stroke-linejoin:round;stroke-miterlimit:4;stroke-dasharray:none;stroke-dashoffset:0;stroke-opacity:1;paint-order:markers fill stroke" />
            <path
               inkscape:connector-curvature="0"
               id="path6018"
               d="m -994.81697,-1968.0441 v 8.2208 h 17.9623 v -0.9297 a 12.140139,9.46875 0 0 1 -0.27295,0.01 12.140139,9.46875 0 0 1 -11.80458,-7.2989 z"
               style="opacity:1;fill:#4f3c2f;fill-opacity:1;stroke:none;stroke-width:4.38943243;stroke-linecap:round;stroke-linejoin:round;stroke-miterlimit:4;stroke-dasharray:none;stroke-dashoffset:0;stroke-opacity:1;paint-order:markers fill stroke" />
            <path
               style="opacity:1;fill:#4f3c2f;fill-opacity:1;stroke:none;stroke-width:4.38943243;stroke-linecap:round;stroke-linejoin:round;stroke-miterlimit:4;stroke-dasharray:none;stroke-dashoffset:0;stroke-opacity:1;paint-order:markers fill stroke"
               d="m -1003.0719,-1968.1325 v 8.2208 h -17.9623 v -0.9297 a 12.140139,9.46875 0 0 0 0.2729,0.01 12.140139,9.46875 0 0 0 11.8046,-7.2989 z"
               id="path6020"
               inkscape:connector-curvature="0" />
            <path
               sodipodi:nodetypes="ccccccc"
               inkscape:connector-curvature="0"
               id="path6022"
               d="m -982.95021,-1965.7902 2.20001,-1.5471 h 6.08056 l 2.23422,1.5831 v 5.7441 h -10.53278 z"
               style="opacity:1;fill:#4f3c2f;fill-opacity:1;stroke:none;stroke-width:4.38943243;stroke-linecap:round;stroke-linejoin:round;stroke-miterlimit:4;stroke-dasharray:none;stroke-dashoffset:0;stroke-opacity:1;paint-order:markers fill stroke" />
            <rect
               style="opacity:1;fill:#4f3c2f;fill-opacity:1;stroke:none;stroke-width:4.38943243;stroke-linecap:round;stroke-linejoin:round;stroke-miterlimit:4;stroke-dasharray:none;stroke-dashoffset:0;stroke-opacity:1;paint-order:markers fill stroke"
               id="rect6026"
               width="6.0550766"
               height="7.3271518"
               x="-980.72937"
               y="-1973.7993" />
            <ellipse
               ry="5.4914103"
               rx="6.1808195"
               cy="-1975.5035"
               cx="-977.70178"
               id="ellipse6028"
               style="opacity:1;fill:#4f3c2f;fill-opacity:1;stroke:none;stroke-width:4.38943243;stroke-linecap:round;stroke-linejoin:round;stroke-miterlimit:4;stroke-dasharray:none;stroke-dashoffset:0;stroke-opacity:1;paint-order:markers fill stroke" />
            <path
               sodipodi:nodetypes="cssssssaccssacccc"
               inkscape:connector-curvature="0"
               id="path6030"
               d="m -1018.7499,-1959.9502 c 0,0 -3.1485,-1.0804 -4.3243,-2.1881 -0.878,-0.8272 -1.6154,-1.9378 -1.8235,-3.126 -0.1827,-1.0434 0.2866,-2.106 0.5731,-3.1259 0.4327,-1.54 0.9983,-3.0525 1.7193,-4.4805 1.2353,-2.447 2.9727,-4.5252 4.4285,-6.9291 0.7654,-1.2641 -0.069,-2.4645 -0.9426,-3.3422 -1.5959,-1.6029 -2.9545,-2.162 -4.6953,-2.37 -0.9712,-0.1161 -2.2249,-0.085 -2.8575,0.6677 -1.5779,2.2241 -2.2972,4.3752 -3.3311,6.6595 -1.0043,2.2057 -2.2542,4.3031 -3.126,6.5645 -0.6522,1.6917 -1.3411,3.4104 -1.5629,5.2099 -0.1383,1.1215 -0.1,2.9875 0.3215,4.3947 0.309,1.0324 1.5741,2.8238 1.5741,2.8238 0,0 4.252,0.5442 4.5125,0.4921 0.2605,-0.052 8.3358,0.2084 8.5963,0.052 0.2605,-0.1562 0.9379,-1.3024 0.9379,-1.3024 z"
               style="fill:#4f3c2f;fill-opacity:1;stroke:none;stroke-width:1.62571573px;stroke-linecap:butt;stroke-linejoin:miter;stroke-opacity:1" />
          </g>
        </g>
      </g>
    </g>
  </g>
</svg>
