<?xml version="1.0" encoding="UTF-8" standalone="no"?>
<!-- Created with Inkscape (http://www.inkscape.org/) -->

<svg
   xmlns:dc="http://purl.org/dc/elements/1.1/"
   xmlns:cc="http://creativecommons.org/ns#"
   xmlns:rdf="http://www.w3.org/1999/02/22-rdf-syntax-ns#"
   xmlns:svg="http://www.w3.org/2000/svg"
   xmlns="http://www.w3.org/2000/svg"
   xmlns:sodipodi="http://sodipodi.sourceforge.net/DTD/sodipodi-0.dtd"
   xmlns:inkscape="http://www.inkscape.org/namespaces/inkscape"
   width="28"
   height="28"
   viewBox="0 0 7.4083332 7.4083335"
   version="1.1"
   id="svg5987"
   inkscape:version="0.92.3 (2405546, 2018-03-11)"
   sodipodi:docname="ico-mail-hover.svg">
  <defs
     id="defs5981" />
  <sodipodi:namedview
     id="base"
     pagecolor="#ffffff"
     bordercolor="#666666"
     borderopacity="1.0"
     inkscape:pageopacity="0.0"
     inkscape:pageshadow="2"
     inkscape:zoom="15.839192"
     inkscape:cx="-14.159382"
     inkscape:cy="14.778268"
     inkscape:document-units="mm"
     inkscape:current-layer="layer1"
     showgrid="false"
     units="px"
     inkscape:window-width="1920"
     inkscape:window-height="1017"
     inkscape:window-x="1272"
     inkscape:window-y="-8"
     inkscape:window-maximized="1" />
  <metadata
     id="metadata5984">
    <rdf:RDF>
      <cc:Work
         rdf:about="">
        <dc:format>image/svg+xml</dc:format>
        <dc:type
           rdf:resource="http://purl.org/dc/dcmitype/StillImage" />
        <dc:title></dc:title>
      </cc:Work>
    </rdf:RDF>
  </metadata>
  <g
     inkscape:label="Layer 1"
     inkscape:groupmode="layer"
     id="layer1"
     transform="translate(0,-289.59165)">
    <g
       id="g6619"
       transform="translate(8.866276,1.7411317)">
      <path
         inkscape:connector-curvature="0"
         id="circle8183"
         d="m -5.1621094,287.89648 c -2.0178489,0 -3.6582031,1.64036 -3.6582031,3.65821 0,2.01785 1.6403542,3.6582 3.6582031,3.6582 2.0178489,0 3.6582032,-1.64035 3.6582032,-3.6582 -10e-8,-2.01785 -1.6403543,-3.65821 -3.6582032,-3.65821 z m 0,0.44336 c 1.777845,0 3.2148438,1.437 3.2148438,3.21485 0,1.77784 -1.4369988,3.21484 -3.2148438,3.21484 -1.7778449,0 -3.2128906,-1.437 -3.2128906,-3.21484 0,-1.77785 1.4350457,-3.21485 3.2128906,-3.21485 z"
         style="color:#000000;font-style:normal;font-variant:normal;font-weight:normal;font-stretch:normal;font-size:medium;line-height:normal;font-family:sans-serif;font-variant-ligatures:normal;font-variant-position:normal;font-variant-caps:normal;font-variant-numeric:normal;font-variant-alternates:normal;font-feature-settings:normal;text-indent:0;text-align:start;text-decoration:none;text-decoration-line:none;text-decoration-style:solid;text-decoration-color:#000000;letter-spacing:normal;word-spacing:normal;text-transform:none;writing-mode:lr-tb;direction:ltr;text-orientation:mixed;dominant-baseline:auto;baseline-shift:baseline;text-anchor:start;white-space:normal;shape-padding:0;clip-rule:nonzero;display:inline;overflow:visible;visibility:visible;opacity:1;isolation:auto;mix-blend-mode:normal;color-interpolation:sRGB;color-interpolation-filters:linearRGB;solid-color:#000000;solid-opacity:1;vector-effect:none;fill:#5cb544;fill-opacity:1;fill-rule:nonzero;stroke:none;stroke-width:0.44408986;stroke-linecap:round;stroke-linejoin:round;stroke-miterlimit:4;stroke-dasharray:none;stroke-dashoffset:0;stroke-opacity:1;paint-order:markers fill stroke;color-rendering:auto;image-rendering:auto;shape-rendering:auto;text-rendering:auto;enable-background:accumulate" />
      <g
         aria-label=""
         transform="matrix(0.14423757,0,0,0.14423757,-178.70316,286.1391)"
         style="font-style:normal;font-variant:normal;font-weight:normal;font-stretch:normal;font-size:31.32900047px;line-height:19.85000038px;font-family:FontAwesome;-inkscape-font-specification:FontAwesome;font-variant-ligatures:normal;font-variant-caps:normal;font-variant-numeric:normal;font-feature-settings:normal;text-align:start;letter-spacing:0px;word-spacing:0px;writing-mode:lr-tb;text-anchor:start;fill:#5cb544;fill-opacity:1;stroke:none"
         id="flowRoot8185">
        <path
           d="m 1216.5912,47.054483 c 0,0.297205 -0.2622,0.559446 -0.5594,0.559446 h -25.7346 c -0.2972,0 -0.5594,-0.262241 -0.5594,-0.559446 V 33.627768 c 0.3671,0.419585 0.7692,0.804204 1.2063,1.153858 2.5,1.923097 5.0175,3.88116 7.4476,5.909153 1.3112,1.10141 2.9371,2.447578 4.7553,2.447578 h 0.018 0.017 c 1.8182,0 3.4441,-1.346168 4.7553,-2.447578 2.4301,-2.027993 4.9476,-3.986056 7.4476,-5.909153 0.4371,-0.349654 0.8392,-0.734273 1.2063,-1.153858 z m 0,-18.374319 c 0,1.486029 -1.4336,3.426609 -2.5699,4.318227 -2.3427,1.835683 -4.6854,3.68885 -7.0106,5.542016 -0.9266,0.751756 -2.6049,2.360165 -3.8287,2.360165 h -0.017 -0.018 c -1.2238,0 -2.9021,-1.608409 -3.8287,-2.360165 -2.3252,-1.853166 -4.6679,-3.706333 -7.0106,-5.542016 -1.5734,-1.241272 -2.5699,-2.972059 -2.5699,-4.965087 0,-0.297206 0.2622,-0.559447 0.5594,-0.559447 h 25.7346 c 0.6643,0 0.5594,0.769239 0.5594,1.206307 z m 2.2378,-0.64686 c 0,-1.538478 -1.2588,-2.797233 -2.7972,-2.797233 h -25.7346 c -1.5384,0 -2.7972,1.258755 -2.7972,2.797233 v 19.021179 c 0,1.538477 1.2588,2.797232 2.7972,2.797232 h 25.7346 c 1.5384,0 2.7972,-1.258755 2.7972,-2.797232 z"
           style=""
           id="path4488" />
      </g>
    </g>
    <path
       style="fill:#4f3c2f;fill-opacity:1;stroke-width:0.06313454"
       d="M 12.262421,27.687115 C 9.2377069,27.269312 6.6571472,26.032678 4.4696488,23.95273 2.5882505,22.163831 1.2124692,19.77946 0.59179915,17.232015 0.2215852,15.712529 0.11672258,13.652417 0.33178575,12.12384 0.97418376,7.5579488 3.8279142,3.6281902 7.9692722,1.6065618 10.135134,0.54928371 12.625094,0.0630787 14.957039,0.24208768 21.903209,0.77530235 27.322203,6.2331535 27.756515,13.133344 c 0.244421,3.883268 -1.124824,7.605576 -3.837208,10.431494 -2.030642,2.11564 -4.633676,3.500203 -7.584709,4.034333 -0.943262,0.170729 -3.130832,0.217972 -4.072177,0.08794 z m 2.525381,-1.548077 c 3.396979,-0.235521 6.40362,-1.757138 8.54539,-4.324696 C 27.401029,16.937811 27.055528,9.7882103 22.536234,5.3225348 19.610831,2.4318405 15.399909,1.2276692 11.354345,2.1249195 7.1893151,3.0486655 3.8202119,6.0825767 2.4773224,10.118766 1.9434402,11.723403 1.7366163,13.33941 1.8672765,14.885327 c 0.2571226,3.042165 1.4391905,5.619571 3.5414313,7.721812 2.0821985,2.082199 4.7978572,3.326051 7.7060292,3.52959 0.364602,0.02552 0.691323,0.05026 0.726047,0.05499 0.03472,0.0047 0.460882,-0.01898 0.947018,-0.05269 z"
       id="path1405"
       inkscape:connector-curvature="0"
       transform="matrix(0.26458333,0,0,0.26458333,0,289.59165)" />
    <path
       style="fill:#4f3c2f;fill-opacity:1;stroke-width:0.06313454"
       d="M 6.6866465,20.642019 C 6.1115906,20.528825 5.6659424,20.081596 5.5381849,19.489485 5.488469,19.25907 5.4734767,17.580022 5.4873497,13.796256 L 5.5070254,8.4298209 5.6445061,8.1729761 C 5.8273717,7.8313422 6.2306427,7.4753629 6.528493,7.3926546 c 0.1637525,-0.045472 2.5831141,-0.066652 7.533262,-0.065949 6.96378,9.879e-4 7.303636,0.0063 7.549679,0.118048 0.141702,0.064357 0.362559,0.2250452 0.490793,0.357084 0.436896,0.4498573 0.424297,0.2523219 0.40514,6.3517254 l -0.01715,5.461044 -0.190897,0.308733 c -0.24211,0.391558 -0.599449,0.641496 -1.03306,0.722566 -0.419161,0.07837 -14.180372,0.0747 -14.5796115,-0.0039 z M 21.200107,19.444576 c 0.118641,-0.0635 0.122119,-0.172654 0.122119,-3.832785 v -3.767428 l -0.268322,0.258343 c -0.147577,0.142089 -0.808122,0.678143 -1.467878,1.191231 -0.659755,0.513087 -1.719716,1.356619 -2.355468,1.874514 -1.778923,1.449144 -2.180128,1.701427 -2.889325,1.816852 -0.449901,0.07322 -0.952753,-0.01735 -1.452127,-0.261553 C 12.460533,16.514169 11.986185,16.161453 10.389365,14.864984 9.7875179,14.376341 8.8263235,13.61278 8.2533776,13.168183 7.6804317,12.723586 7.090913,12.243846 6.943336,12.102094 L 6.6750143,11.844363 v 3.766512 c 0,3.52055 0.00721,3.770715 0.1104854,3.830865 0.1546522,0.09008 14.2464163,0.09285 14.4146073,0.0028 z m -6.601709,-3.776107 c 0.22824,-0.10819 1.018721,-0.691804 1.988738,-1.468292 0.885462,-0.708802 2.083023,-1.662543 2.661247,-2.119423 1.108788,-0.876102 1.524264,-1.329054 1.865875,-2.034174 0.219635,-0.4533459 0.28599,-1.3087472 0.114802,-1.4799353 -0.097,-0.097002 -0.660837,-0.1052565 -7.189334,-0.1052565 -8.0519079,0 -7.3647117,-0.049787 -7.3647117,0.5335732 0,0.6261696 0.3434043,1.4517086 0.8454314,2.0324046 0.1243725,0.143862 1.1427596,0.985301 2.2630825,1.869864 1.1203228,0.884563 2.2784398,1.81124 2.5735938,2.059282 0.619581,0.520684 1.299524,0.89164 1.634197,0.891567 0.12555,-2.7e-5 0.398735,-0.08085 0.607079,-0.17961 z"
       id="path1407"
       inkscape:connector-curvature="0"
       transform="matrix(0.26458333,0,0,0.26458333,0,289.59165)" />
  </g>
</svg>
