<?xml version="1.0" encoding="UTF-8" standalone="no"?>
<!-- Created with Inkscape (http://www.inkscape.org/) -->

<svg
   xmlns:dc="http://purl.org/dc/elements/1.1/"
   xmlns:cc="http://creativecommons.org/ns#"
   xmlns:rdf="http://www.w3.org/1999/02/22-rdf-syntax-ns#"
   xmlns:svg="http://www.w3.org/2000/svg"
   xmlns="http://www.w3.org/2000/svg"
   xmlns:sodipodi="http://sodipodi.sourceforge.net/DTD/sodipodi-0.dtd"
   xmlns:inkscape="http://www.inkscape.org/namespaces/inkscape"
   width="28"
   height="28"
   viewBox="0 0 7.4083332 7.4083335"
   version="1.1"
   id="svg5987"
   inkscape:version="0.92.1 r15371"
   sodipodi:docname="почта в шапку.svg">
  <defs
     id="defs5981" />
  <sodipodi:namedview
     id="base"
     pagecolor="#ffffff"
     bordercolor="#666666"
     borderopacity="1.0"
     inkscape:pageopacity="0.0"
     inkscape:pageshadow="2"
     inkscape:zoom="15.839192"
     inkscape:cx="-2.0059841"
     inkscape:cy="14.778268"
     inkscape:document-units="mm"
     inkscape:current-layer="layer1"
     showgrid="false"
     units="px"
     inkscape:window-width="1920"
     inkscape:window-height="1017"
     inkscape:window-x="-8"
     inkscape:window-y="-8"
     inkscape:window-maximized="1" />
  <metadata
     id="metadata5984">
    <rdf:RDF>
      <cc:Work
         rdf:about="">
        <dc:format>image/svg+xml</dc:format>
        <dc:type
           rdf:resource="http://purl.org/dc/dcmitype/StillImage" />
        <dc:title />
      </cc:Work>
    </rdf:RDF>
  </metadata>
  <g
     inkscape:label="Layer 1"
     inkscape:groupmode="layer"
     id="layer1"
     transform="translate(0,-289.59165)">
    <g
       id="g6619"
       transform="translate(8.866276,1.7411317)">
      <path
         inkscape:connector-curvature="0"
         id="circle8183"
         d="m -5.1621094,287.89648 c -2.0178489,0 -3.6582031,1.64036 -3.6582031,3.65821 0,2.01785 1.6403542,3.6582 3.6582031,3.6582 2.0178489,0 3.6582032,-1.64035 3.6582032,-3.6582 -10e-8,-2.01785 -1.6403543,-3.65821 -3.6582032,-3.65821 z m 0,0.44336 c 1.777845,0 3.2148438,1.437 3.2148438,3.21485 0,1.77784 -1.4369988,3.21484 -3.2148438,3.21484 -1.7778449,0 -3.2128906,-1.437 -3.2128906,-3.21484 0,-1.77785 1.4350457,-3.21485 3.2128906,-3.21485 z"
         style="color:#000000;font-style:normal;font-variant:normal;font-weight:normal;font-stretch:normal;font-size:medium;line-height:normal;font-family:sans-serif;font-variant-ligatures:normal;font-variant-position:normal;font-variant-caps:normal;font-variant-numeric:normal;font-variant-alternates:normal;font-feature-settings:normal;text-indent:0;text-align:start;text-decoration:none;text-decoration-line:none;text-decoration-style:solid;text-decoration-color:#000000;letter-spacing:normal;word-spacing:normal;text-transform:none;writing-mode:lr-tb;direction:ltr;text-orientation:mixed;dominant-baseline:auto;baseline-shift:baseline;text-anchor:start;white-space:normal;shape-padding:0;clip-rule:nonzero;display:inline;overflow:visible;visibility:visible;opacity:1;isolation:auto;mix-blend-mode:normal;color-interpolation:sRGB;color-interpolation-filters:linearRGB;solid-color:#000000;solid-opacity:1;vector-effect:none;fill:#5cb544;fill-opacity:1;fill-rule:nonzero;stroke:none;stroke-width:0.44408986;stroke-linecap:round;stroke-linejoin:round;stroke-miterlimit:4;stroke-dasharray:none;stroke-dashoffset:0;stroke-opacity:1;paint-order:markers fill stroke;color-rendering:auto;image-rendering:auto;shape-rendering:auto;text-rendering:auto;enable-background:accumulate" />
      <g
         aria-label=""
         transform="matrix(0.14423757,0,0,0.14423757,-178.70316,286.1391)"
         style="font-style:normal;font-variant:normal;font-weight:normal;font-stretch:normal;font-size:31.32900047px;line-height:19.85000038px;font-family:FontAwesome;-inkscape-font-specification:FontAwesome;font-variant-ligatures:normal;font-variant-caps:normal;font-variant-numeric:normal;font-feature-settings:normal;text-align:start;letter-spacing:0px;word-spacing:0px;writing-mode:lr-tb;text-anchor:start;fill:#5cb544;fill-opacity:1;stroke:none"
         id="flowRoot8185">
        <path
           d="m 1216.5912,47.054483 c 0,0.297205 -0.2622,0.559446 -0.5594,0.559446 h -25.7346 c -0.2972,0 -0.5594,-0.262241 -0.5594,-0.559446 V 33.627768 c 0.3671,0.419585 0.7692,0.804204 1.2063,1.153858 2.5,1.923097 5.0175,3.88116 7.4476,5.909153 1.3112,1.10141 2.9371,2.447578 4.7553,2.447578 h 0.018 0.017 c 1.8182,0 3.4441,-1.346168 4.7553,-2.447578 2.4301,-2.027993 4.9476,-3.986056 7.4476,-5.909153 0.4371,-0.349654 0.8392,-0.734273 1.2063,-1.153858 z m 0,-18.374319 c 0,1.486029 -1.4336,3.426609 -2.5699,4.318227 -2.3427,1.835683 -4.6854,3.68885 -7.0106,5.542016 -0.9266,0.751756 -2.6049,2.360165 -3.8287,2.360165 h -0.017 -0.018 c -1.2238,0 -2.9021,-1.608409 -3.8287,-2.360165 -2.3252,-1.853166 -4.6679,-3.706333 -7.0106,-5.542016 -1.5734,-1.241272 -2.5699,-2.972059 -2.5699,-4.965087 0,-0.297206 0.2622,-0.559447 0.5594,-0.559447 h 25.7346 c 0.6643,0 0.5594,0.769239 0.5594,1.206307 z m 2.2378,-0.64686 c 0,-1.538478 -1.2588,-2.797233 -2.7972,-2.797233 h -25.7346 c -1.5384,0 -2.7972,1.258755 -2.7972,2.797233 v 19.021179 c 0,1.538477 1.2588,2.797232 2.7972,2.797232 h 25.7346 c 1.5384,0 2.7972,-1.258755 2.7972,-2.797232 z"
           style=""
           id="path4488" />
      </g>
    </g>
  </g>
</svg>
